<svg width="607" height="359" viewBox="0 0 607 359" fill="none" xmlns="http://www.w3.org/2000/svg">
<g clip-path="url(#clip0_3_13)">
<path d="M133.233 200.278C133.238 199.176 133.079 198.084 132.765 197.071C132.452 196.058 131.99 195.145 131.409 194.389C130.829 193.633 130.141 193.051 129.39 192.678C128.639 192.305 127.841 192.151 127.044 192.223C126.248 192.296 125.471 192.594 124.762 193.1C124.053 193.606 123.427 194.308 122.924 195.163C122.42 196.018 122.05 197.007 121.835 198.068C121.621 199.129 121.567 200.24 121.677 201.332L104.998 231.492C104.286 233.457 104.01 235.669 104.204 237.85C104.399 240.031 105.055 242.084 106.091 243.753L107.399 245.86L113.403 244.202L120.207 235.913L119.406 226.518L127.811 208.281L127.8 208.268C129.272 208.138 130.652 207.24 131.661 205.756C132.67 204.272 133.232 202.313 133.233 200.278Z" fill="#A0616A"/>
<path d="M17.8864 347.726L15.1636 333.763L52.8714 312.62L56.8898 333.227L17.8864 347.726Z" fill="#A0616A"/>
<path d="M8.77862 354.931L-2.38419e-06 309.911L0.412396 309.757C3.77817 308.506 7.36603 309.152 10.3868 311.554C13.4076 313.955 15.6138 317.915 16.5203 322.562L16.5205 322.563L21.8822 350.06L8.77862 354.931Z" fill="#2F2E41"/>
<path d="M69.8272 345.495L61.3583 336.991L81.0844 287.838L93.5842 300.389L69.8272 345.495Z" fill="#A0616A"/>
<path d="M66.0172 359L38.7085 331.578L38.9597 331.101C41.0099 327.209 44.0958 324.601 47.5387 323.85C50.9816 323.099 54.4996 324.267 57.3187 327.097L57.3194 327.098L73.9986 343.846L66.0172 359Z" fill="#2F2E41"/>
<path d="M141.82 276.808L120.507 248.221C118.647 245.726 116.197 244.242 113.608 244.043C111.019 243.843 108.465 244.941 106.415 247.134L66.1743 308.861L69.7765 316.598L108.199 280.676L134.215 327.65L159.03 310.519L141.82 276.808Z" fill="#2F2E41"/>
<path d="M132.614 282.887L117.005 281.229L105.7 277.445C105.062 276.07 104.134 274.996 103.042 274.369C101.949 273.741 100.744 273.59 99.5876 273.934C98.431 274.279 97.3782 275.103 96.5702 276.296C95.7621 277.49 95.2374 278.995 95.0663 280.612C94.8951 282.229 95.0857 283.879 95.6125 285.342C96.1394 286.804 96.9773 288.01 98.0141 288.797C99.0509 289.585 100.237 289.916 101.414 289.746C102.591 289.577 103.702 288.915 104.599 287.849L104.597 287.861L111.402 291.729L140.619 305.545L144.221 301.677L132.614 282.887Z" fill="#A0616A"/>
<path d="M170.237 342.572L161.431 350.309H151.025L102.596 325.44L31.7538 343.125L29.7527 322.124L94.5917 282.887L151.425 308.861L170.237 342.572Z" fill="#2F2E41"/>
<path d="M151.425 208.281C160.046 208.281 167.035 198.631 167.035 186.728C167.035 174.825 160.046 165.175 151.425 165.175C142.805 165.175 135.816 174.825 135.816 186.728C135.816 198.631 142.805 208.281 151.425 208.281Z" fill="#A0616A"/>
<path d="M191.813 272.779C191.813 285.787 190.329 298.713 187.415 311.083L186.246 316.045L180.643 351.414L174.639 353.625L170.237 345.888L161.431 337.046L155.028 322.677L149.536 310.044L147.823 306.098L141.82 264.65L119.006 246.965L111.401 245.308L113.002 239.229L119.806 226.518L126.611 225.413L128.612 223.202L130.213 224.307L139.038 229.002L167.651 212.309L171.838 213.254L186.246 229.834C189.93 243.58 191.815 258.122 191.813 272.779Z" fill="#CCCCCC"/>
<path opacity="0.1" d="M187.447 267.966L172.238 281.781L149.536 310.043L147.823 306.098L143.02 272.94H144.221L156.629 241.44L187.447 267.966Z" fill="black"/>
<path d="M156.629 238.123L144.221 269.623L137.017 280.677L130.613 282.887L147.823 308.861L172.238 278.466L187.447 264.65L156.629 238.123Z" fill="#CCCCCC"/>
<path d="M139.284 170.702L137.593 171.601C137.337 171.361 137.117 171.053 136.946 170.696C136.775 170.338 136.657 169.938 136.599 169.518C136.54 169.097 136.542 168.665 136.604 168.246C136.667 167.826 136.788 167.428 136.962 167.074C136.971 167.055 136.98 167.037 136.99 167.018L133.864 166.816C135.871 163.127 138.421 160.068 141.348 157.841C144.275 155.615 147.51 154.272 150.841 153.901C154.171 153.53 157.521 154.141 160.668 155.691C163.815 157.242 166.688 159.697 169.096 162.895C169.238 162.219 170.79 163.535 171.423 164.87C171.636 163.769 173.09 169.092 173.604 172.854C173.843 171.602 174.758 173.624 173.956 175.565C174.464 175.462 174.694 177.258 174.3 178.258C174.857 177.897 174.763 180.041 174.16 181.473C174.953 181.376 174.092 203.943 162.184 202.298C161.355 197.039 161.589 197.366 160.613 190.603C160.158 189.937 159.661 189.33 159.164 188.725L156.477 185.45C153.353 181.642 150.511 176.943 146.349 175.519C143.489 174.541 141.68 174.321 143.239 169.87C141.83 170.682 140.515 171.888 139.094 172.642C139.114 172.02 139.312 171.324 139.284 170.702Z" fill="#2F2E41"/>
<path d="M159.23 193.083C160.777 193.083 162.032 191.351 162.032 189.215C162.032 187.078 160.777 185.346 159.23 185.346C157.683 185.346 156.428 187.078 156.428 189.215C156.428 191.351 157.683 193.083 159.23 193.083Z" fill="#A0616A"/>
<path d="M28.5777 97.8496L27.7228 115.576L40.561 116.757L41.4159 99.0301L28.5777 97.8496Z" fill="#E6E6E6"/>
<path d="M20.2946 107.262L35.8838 108.696L34.8456 130.221L19.2564 128.787L20.2946 107.262ZM35.1609 109.569L20.9272 108.261L19.9793 127.914L34.2129 129.223L35.1609 109.569Z" fill="#CCCCCC"/>
<path d="M101.128 45.2849L88.549 49.017L91.2519 66.3865L103.831 62.6543L101.128 45.2849Z" fill="#E6E6E6"/>
<path d="M92.2991 36.8718L95.5813 57.9632L80.3061 62.4951L77.024 41.4037L92.2991 36.8718ZM94.7744 57.2433L91.7777 37.9859L77.8308 42.1237L80.8276 61.3811L94.7744 57.2433Z" fill="#CCCCCC"/>
<path d="M87.9104 128.699L78.5198 140.844L87.3157 153.81L96.7063 141.665L87.9104 128.699Z" fill="#E6E6E6"/>
<path d="M97.3815 126.882L85.9787 141.63L75.298 125.885L86.7008 111.138L97.3815 126.882ZM86.0101 140.304L96.4213 126.839L86.6694 112.463L76.2581 125.928L86.0101 140.304Z" fill="#CCCCCC"/>
<path d="M573.534 0H192.846C191.47 -2.15921e-06 190.108 0.374219 188.837 1.1013C187.565 1.82838 186.41 2.89407 185.437 4.23754C184.464 5.58101 183.692 7.17594 183.166 8.93126C182.639 10.6866 182.368 12.5679 182.368 14.4679V307.346C182.368 309.246 182.639 311.128 183.166 312.883C183.692 314.638 184.464 316.233 185.437 317.577C186.41 318.92 187.565 319.986 188.837 320.713C190.108 321.44 191.47 321.814 192.846 321.814H573.534C576.313 321.814 578.978 320.29 580.943 317.577C582.908 314.863 584.012 311.184 584.012 307.346V14.4679C584.012 10.6308 582.908 6.95081 580.943 4.23755C578.978 1.52429 576.313 2.18037e-06 573.534 0Z" fill="#3F3D56"/>
<path d="M569.964 25.5688H196.416V316.524H569.964V25.5688Z" fill="white"/>
<path d="M382.871 17.6336C384.987 17.6336 386.702 15.2652 386.702 12.3436C386.702 9.42192 384.987 7.05347 382.871 7.05347C380.755 7.05347 379.04 9.42192 379.04 12.3436C379.04 15.2652 380.755 17.6336 382.871 17.6336Z" fill="white"/>
<path d="M463.136 316.525H196.416V25.5693L463.136 316.525Z" fill="#F2F2F2"/>
<path d="M254.865 294.752C274.696 294.752 290.772 272.555 290.772 245.173C290.772 217.791 274.696 195.594 254.865 195.594C235.035 195.594 218.959 217.791 218.959 245.173C218.959 272.555 235.035 294.752 254.865 294.752Z" fill="#F38016"/>
<path d="M262.859 282.436C254.025 282.436 245.389 278.819 238.044 272.043C230.699 265.266 224.975 255.635 221.594 244.366C218.214 233.097 217.329 220.697 219.052 208.734C220.776 196.771 225.03 185.782 231.276 177.157C237.523 168.532 245.481 162.659 254.145 160.279C262.809 157.899 271.79 159.121 279.951 163.788C288.112 168.456 295.088 176.361 299.996 186.502C304.903 196.644 307.523 208.568 307.523 220.765C307.523 228.864 306.368 236.883 304.123 244.366C301.878 251.848 298.588 258.647 294.441 264.373C290.294 270.1 285.37 274.643 279.951 277.742C274.532 280.841 268.724 282.436 262.859 282.436ZM262.859 159.9C254.14 159.9 245.618 163.47 238.369 170.158C231.12 176.846 225.47 186.351 222.133 197.473C218.797 208.595 217.924 220.833 219.625 232.639C221.326 244.446 225.524 255.291 231.689 263.803C237.854 272.315 245.708 278.112 254.259 280.461C262.81 282.809 271.673 281.604 279.727 276.997C287.782 272.39 294.666 264.589 299.51 254.58C304.354 244.571 306.939 232.803 306.939 220.765C306.939 212.772 305.799 204.858 303.584 197.473C301.368 190.089 298.121 183.379 294.028 177.727C289.935 172.075 285.075 167.592 279.727 164.533C274.379 161.474 268.647 159.9 262.859 159.9L262.859 159.9Z" fill="#3F3D56"/>
<path d="M483.489 176.729H448.596V186.796H483.489V176.729Z" fill="#3F3D56"/>
<path d="M516.502 122.188H415.583V126.502H516.502V122.188Z" fill="#3F3D56"/>
<path d="M516.502 139.139H415.583V143.454H516.502V139.139Z" fill="#3F3D56"/>
<path d="M516.502 156.09H415.583V160.405H516.502V156.09Z" fill="#3F3D56"/>
<path d="M543.536 42.9812H528.953V63.1161H543.536V42.9812Z" fill="#F38016"/>
<path d="M550.306 72.4645H532.599V48.0149H550.306V72.4645ZM533.369 71.4015H549.536V49.078H533.369L533.369 71.4015Z" fill="#CCCCCC"/>
<path d="M594.501 311.234H558.045V307.607C558.045 307.513 558.031 307.419 558.005 307.332C557.979 307.245 557.941 307.166 557.892 307.099C557.844 307.032 557.787 306.979 557.723 306.943C557.66 306.907 557.593 306.888 557.524 306.888H545.025C544.957 306.888 544.889 306.907 544.826 306.943C544.762 306.979 544.705 307.032 544.657 307.099C544.608 307.166 544.57 307.245 544.544 307.332C544.518 307.419 544.504 307.513 544.504 307.607V311.234H536.692V307.607C536.692 307.513 536.679 307.419 536.653 307.332C536.626 307.245 536.588 307.166 536.54 307.099C536.491 307.032 536.434 306.979 536.371 306.943C536.308 306.907 536.24 306.888 536.171 306.888H523.672C523.604 306.888 523.536 306.907 523.473 306.943C523.41 306.979 523.352 307.032 523.304 307.099C523.256 307.166 523.217 307.245 523.191 307.332C523.165 307.419 523.152 307.513 523.152 307.607V311.234H515.34V307.607C515.34 307.513 515.326 307.419 515.3 307.332C515.274 307.245 515.235 307.166 515.187 307.099C515.139 307.032 515.081 306.979 515.018 306.943C514.955 306.907 514.887 306.888 514.819 306.888H502.32C502.251 306.888 502.183 306.907 502.12 306.943C502.057 306.979 502 307.032 501.951 307.099C501.903 307.166 501.865 307.245 501.838 307.332C501.812 307.419 501.799 307.513 501.799 307.607V311.234H493.987V307.607C493.987 307.513 493.973 307.419 493.947 307.332C493.921 307.245 493.883 307.166 493.834 307.099C493.786 307.032 493.728 306.979 493.665 306.943C493.602 306.907 493.534 306.888 493.466 306.888H480.967C480.898 306.888 480.831 306.907 480.768 306.943C480.704 306.979 480.647 307.032 480.599 307.099C480.55 307.166 480.512 307.245 480.486 307.332C480.46 307.419 480.446 307.513 480.446 307.607V311.234H472.634V307.607C472.634 307.513 472.621 307.419 472.594 307.332C472.568 307.245 472.53 307.166 472.482 307.099C472.433 307.032 472.376 306.979 472.313 306.943C472.249 306.907 472.182 306.888 472.113 306.888H459.614C459.546 306.888 459.478 306.907 459.415 306.943C459.352 306.979 459.294 307.032 459.246 307.099C459.198 307.166 459.159 307.245 459.133 307.332C459.107 307.419 459.093 307.513 459.093 307.607V311.234H451.281V307.607C451.281 307.513 451.268 307.419 451.242 307.332C451.216 307.245 451.177 307.166 451.129 307.099C451.08 307.032 451.023 306.979 450.96 306.943C450.897 306.907 450.829 306.888 450.761 306.888H438.261C438.193 306.888 438.125 306.907 438.062 306.943C437.999 306.979 437.941 307.032 437.893 307.099C437.845 307.166 437.806 307.245 437.78 307.332C437.754 307.419 437.741 307.513 437.741 307.607V311.234H429.929V307.607C429.929 307.513 429.915 307.419 429.889 307.332C429.863 307.245 429.824 307.166 429.776 307.099C429.728 307.032 429.67 306.979 429.607 306.943C429.544 306.907 429.476 306.888 429.408 306.888H331.498C331.429 306.888 331.362 306.907 331.298 306.943C331.235 306.979 331.178 307.032 331.129 307.099C331.081 307.166 331.043 307.245 331.017 307.332C330.99 307.419 330.977 307.513 330.977 307.607V311.234H323.165V307.607C323.165 307.513 323.151 307.419 323.125 307.332C323.099 307.245 323.061 307.166 323.012 307.099C322.964 307.032 322.907 306.979 322.843 306.943C322.78 306.907 322.713 306.888 322.644 306.888H310.145C310.077 306.888 310.009 306.907 309.946 306.943C309.883 306.979 309.825 307.032 309.777 307.099C309.728 307.166 309.69 307.245 309.664 307.332C309.638 307.419 309.624 307.513 309.624 307.607V311.234H301.812V307.607C301.812 307.513 301.799 307.419 301.773 307.332C301.746 307.245 301.708 307.166 301.66 307.099C301.611 307.032 301.554 306.979 301.491 306.943C301.428 306.907 301.36 306.888 301.291 306.888H288.792C288.724 306.888 288.656 306.907 288.593 306.943C288.53 306.979 288.472 307.032 288.424 307.099C288.376 307.166 288.337 307.245 288.311 307.332C288.285 307.419 288.271 307.513 288.271 307.607V311.234H280.46V307.607C280.46 307.513 280.446 307.419 280.42 307.332C280.394 307.245 280.355 307.166 280.307 307.099C280.259 307.032 280.201 306.979 280.138 306.943C280.075 306.907 280.007 306.888 279.939 306.888H267.44C267.371 306.888 267.303 306.907 267.24 306.943C267.177 306.979 267.12 307.032 267.071 307.099C267.023 307.166 266.985 307.245 266.958 307.332C266.932 307.419 266.919 307.513 266.919 307.607V311.234H259.107V307.607C259.107 307.513 259.093 307.419 259.067 307.332C259.041 307.245 259.003 307.166 258.954 307.099C258.906 307.032 258.848 306.979 258.785 306.943C258.722 306.907 258.654 306.888 258.586 306.888H246.087C246.018 306.888 245.951 306.907 245.888 306.943C245.824 306.979 245.767 307.032 245.719 307.099C245.67 307.166 245.632 307.245 245.606 307.332C245.579 307.419 245.566 307.513 245.566 307.607V311.234H237.754V307.607C237.754 307.513 237.741 307.419 237.714 307.332C237.688 307.245 237.65 307.166 237.601 307.099C237.553 307.032 237.496 306.979 237.433 306.943C237.369 306.907 237.302 306.888 237.233 306.888H224.734C224.596 306.888 224.463 306.964 224.366 307.099C224.268 307.234 224.213 307.417 224.213 307.607V311.234H216.401V307.607C216.401 307.513 216.388 307.419 216.362 307.332C216.335 307.245 216.297 307.166 216.249 307.099C216.2 307.032 216.143 306.979 216.08 306.943C216.017 306.907 215.949 306.888 215.881 306.888H203.381C203.243 306.888 203.111 306.964 203.013 307.099C202.915 307.234 202.861 307.417 202.861 307.607V311.234H178.904C175.589 311.234 172.41 313.052 170.066 316.289C167.722 319.526 166.405 323.915 166.405 328.493V336.296C166.405 340.874 167.722 345.263 170.066 348.5C172.41 351.737 175.589 353.555 178.904 353.555H594.501C597.816 353.555 600.995 351.737 603.339 348.5C605.683 345.263 607 340.874 607 336.296V328.493C607 326.226 606.677 323.982 606.049 321.888C605.42 319.794 604.5 317.892 603.339 316.289C602.178 314.686 600.801 313.415 599.284 312.548C597.768 311.68 596.142 311.234 594.501 311.234Z" fill="#3F3D56"/>
</g>
<defs>
<clipPath id="clip0_3_13">
<rect width="607" height="359" fill="white"/>
</clipPath>
</defs>
</svg>
