<svg  viewBox="0 0 206 384" fill="none" xmlns="http://www.w3.org/2000/svg">
<g clip-path="url(#clip0_165_2)">
<path d="M201.531 48.0324C199.741 36.7387 198.567 25.0829 194.025 14.4881C190.444 7.19271 183.063 2.45107 175.202 0.953859C166.446 -0.689261 157.454 0.116165 148.648 0.951265C135.989 2.24052 123.396 4.0908 110.801 5.88553C92.8384 8.76853 61.4939 10.1655 38.1413 13.0907C35.3494 13.429 32.5532 13.7458 29.7731 14.1669C32.0038 14.2573 34.2317 14.405 36.4595 14.548C55.6589 15.6284 74.8157 17.5877 94.0577 17.7868C110.851 18.0858 127.591 16.4584 144.327 15.3163C165.027 13.5797 176.866 13.4451 180.586 19.6737C182.507 21.891 185.654 36.5696 186.819 45.2694C189.737 63.7285 191.3 82.3765 191.495 101.064C192.178 153.128 190.55 205.179 187.566 257.148C185.085 279.428 184.048 301.806 183.712 324.212C183.452 341.658 180.254 358.57 173.528 366.186C172.358 367.376 172.489 367.434 170.026 368.633C169.561 368.768 168.795 368.992 168.094 369.147C165.759 369.245 163.42 369.194 161.092 368.993C122.611 365.657 77.8502 368.671 45.7393 362.526C36.9367 360.849 27.8423 360.217 23.961 359.42C18.108 358.105 18.4469 358.5 15.7524 356.795C15.5606 356.603 15.3264 356.366 15.0884 356.112C15.0378 356.03 14.9786 355.954 14.9307 355.871C14.8215 355.471 14.6489 354.847 14.5096 354.216C14.5318 354.642 14.5083 354.79 14.4618 353.993C14.3775 353.615 14.3235 353.23 14.3002 352.843C14.3596 353.011 14.4014 353.185 14.4248 353.362C14.2192 350.218 14.2005 347.066 14.3687 343.92C15.8584 319.597 16.5507 295.237 17.7722 270.9C20.1999 218.087 23.2393 165.279 23.3577 112.393C22.4109 77.5902 18.9093 42.8891 17.1732 8.11704C12.5802 41.3946 10.9572 74.9699 10.1648 108.524C8.78108 128.955 8.66102 149.434 8.03461 169.896C7.17548 195.715 5.75516 221.51 4.64981 247.319C3.33566 273.014 2.2736 298.72 1.20282 324.426C0.81871 332.393 0.122481 340.348 3.05176e-05 348.326C0.00829052 354.545 0.334331 361.451 4.94995 366.138C8.98354 370.511 14.9764 372.326 20.6917 373.252C30.2275 374.478 30.5335 374.611 38.0878 375.647C52.7616 378.092 67.5311 380.184 82.4209 380.596C106.002 381.139 129.602 381.275 153.154 382.683C161.496 383.132 170.481 384.965 178.102 380.526C201.291 365.445 197.244 323.508 198.62 299.045C199.016 283.806 200.884 268.661 202.106 253.479C203.127 231.197 204.099 208.911 205.024 186.623C205.935 165.154 205.744 143.659 205.82 122.176C206.114 97.3881 205.321 72.5658 201.531 48.0324Z" fill="white"/>
<path d="M14.4617 353.993C14.477 354.067 14.4933 354.142 14.5096 354.216C14.4972 353.977 14.4704 353.653 14.4248 353.362C14.4339 353.478 14.4361 353.595 14.4461 353.712C14.4515 353.819 14.4565 353.908 14.4617 353.993Z" fill="white"/>
<path d="M108.906 36.2705C94.0411 33.2003 78.8495 34.1484 63.7831 33.5554C78.0921 38.9026 93.5559 38.6923 108.527 36.9709C110.479 36.6903 111.931 36.7644 108.906 36.2705Z" fill="white"/>
<path d="M128.888 26.4282C119.494 26.661 119.518 40.4241 128.889 40.6825C138.283 40.4496 138.259 26.6865 128.888 26.4282Z" fill="white"/>
<path d="M68.6506 227.997C59.9777 224.562 50.7516 229.159 42.3641 231.517C47.9608 231.294 57.2527 230.288 60.9729 230.806C68.12 231.383 71.51 235.656 68.9439 241.743C65.8551 248.332 57.4411 249.375 51.776 246.06C49.3824 244.612 46.9996 242.249 47.1765 239.242C47.5595 237.314 46.7256 239.567 46.7004 240.318C46.7643 250.07 59.8749 254.442 67.5826 250.268C76.3288 246.093 78.5487 232.204 68.6506 227.997Z" fill="white"/>
<path d="M124.749 234.538C119.718 227.689 107.154 230.97 99.8198 231.517C105.068 232.217 108.288 232.578 112.508 233.246C116.331 234.016 122.205 234.944 121.132 239.721C120.244 242.813 119.438 245.549 115.768 247.672C112.505 249.013 107.965 248.563 105.474 245.93C104.611 244.557 104.207 242.945 104.322 241.327C104.1 242.028 103.945 242.749 103.857 243.48C103.2 251.931 116.942 254.586 121.75 248.792C125.103 245.104 127.486 239.197 124.749 234.538Z" fill="white"/>
<path d="M160.077 235.789C152.837 231.968 144.375 235.019 136.912 236.608C145.201 237.087 161.955 234.97 160.321 246.97C159.836 248.932 158.992 250.788 157.832 252.443C156.107 254.212 153.867 256.064 151.26 256.015C147.989 255.811 145.431 253.481 143.205 251.377C146.806 258.661 153.141 261.306 159.978 256.104C166.287 251.173 167.88 240.108 160.077 235.789Z" fill="white"/>
<path d="M75.68 276.978C69.5173 272.606 61.4051 275.997 54.728 277.336C59.5531 277.752 65.3404 277.889 67.9543 278.453C69.3852 278.646 70.7605 279.133 71.9932 279.885C73.3759 281.18 74.2577 282.921 74.4838 284.802C74.7435 287.38 75.0471 291.403 73.4902 294.003C71.7018 295.438 69.4544 296.177 67.1635 296.083C64.6613 295.449 62.3067 294.333 60.2317 292.798C62.1179 295.131 64.284 297.645 67.235 298.567C70.4517 299.33 74.3419 298.829 76.8428 296.543C81.031 291.094 81.0458 281.675 75.68 276.978Z" fill="white"/>
<path d="M122.305 271.081C114.174 267.947 105.467 271.083 97.638 273.7C105.11 273.35 113.214 272.11 120.12 275.514C123.595 277.285 125.182 280.017 123.514 283.283C122.813 285.165 119.993 287.509 119.189 288.018C117.022 289.833 114.255 290.772 111.431 290.653C110.249 290.693 109.071 290.488 107.972 290.051C106.873 289.614 105.875 288.955 105.043 288.115C104.02 287.084 103.111 285.945 102.334 284.718C102.54 285.458 102.8 286.182 103.109 286.885C106.203 295.364 117.049 295.725 123.483 290.848C131.766 285.563 132.109 274.809 122.305 271.081Z" fill="white"/>
<path d="M157.177 272.159C151.218 269.828 144.898 272.941 139.094 274.427C144.783 274.631 151.302 272.843 156.29 276.335C161.214 280.354 162.103 287.633 159.237 293.263C156.563 298.844 151.52 297.804 147.857 294.491C146.823 293.68 145.838 292.808 144.907 291.881C145.323 292.639 145.763 293.383 146.248 294.099C150.289 300.97 157.829 302.746 162.76 295.69C168.289 288.248 166.244 275.739 157.177 272.159Z" fill="white"/>
<path d="M52.546 317.337C56.6925 317.349 60.8413 317.029 64.9854 317.235C66.8229 317.465 69.4203 317.369 71.6214 319.21C73.0141 320.529 74.0154 322.208 74.5148 324.06C75.0143 325.912 74.9924 327.866 74.4518 329.707C72.9267 333.128 67.993 333.94 64.6111 333.73C63.4361 333.661 62.2636 333.563 61.0936 333.436C62.4878 334.064 63.9142 334.618 65.3669 335.095C69.1088 336.202 73.7349 335.689 76.6622 332.947C78.5667 330.906 79.1061 327.876 79.1457 325.169C77.0788 309.547 63.2097 313.969 52.546 317.337Z" fill="white"/>
<path d="M114.912 310.696C109.181 308.601 103.14 311.312 97.638 312.974C102.871 312.993 108.477 311.613 113.45 313.751C114.579 314.368 115.545 315.246 116.266 316.312C116.987 317.378 117.443 318.601 117.596 319.879C117.527 322.285 116.568 324.579 114.905 326.318C113.493 327.375 111.89 328.15 110.185 328.6C112.947 328.713 115.963 328.332 117.866 326.109C118.984 325.025 119.814 323.681 120.283 322.196C120.752 320.711 120.844 319.134 120.551 317.605C120.258 316.076 119.589 314.644 118.605 313.438C117.62 312.232 116.351 311.289 114.912 310.696Z" fill="white"/>
<path d="M157.83 314.327C151.888 309.012 143.492 310.398 136.184 310.792C140.989 312.03 146.158 312.474 150.612 314.754C155.425 317.531 157.018 321.976 155.484 326.572C154.159 331.756 149.657 336.715 143.064 336.241C139.593 335.699 136.41 333.988 134.043 331.39C133.75 331.029 133.481 330.648 133.223 330.262C133.313 330.583 133.404 330.903 133.512 331.218C136.676 339.71 147.739 343.664 155.161 338.032C162.701 332.986 165.131 320.602 157.83 314.327Z" fill="white"/>
<path d="M166.096 89.9007C158.263 83.6394 147.518 83.2552 137.927 82.2894C138.257 82.3334 138.692 82.3912 139.09 82.4441C128.275 81.4836 117.422 81.0206 106.57 80.6191C95.3118 80.509 83.8742 79.8605 72.7194 81.5984C61.1237 84.7044 54.8303 94.3029 52.9734 105.702C50.8713 116.115 50.8021 126.747 50.5606 137.324C50.3296 145.071 49.9395 152.823 50.0573 160.575C50.0891 162.522 50.2275 164.466 50.4719 166.398C50.4347 166.085 50.3749 165.59 50.2801 164.826C50.2927 165.469 50.3585 166.109 50.4767 166.741C50.6851 168.966 51.2193 171.148 52.0625 173.218C51.8206 176.709 51.1266 180.251 51.8498 183.692C53.5548 189.786 60.0585 190.022 65.276 188.993C68.843 188.564 72.4114 188.146 75.981 187.74C85.5446 186.529 95.2139 185.879 104.804 187.089C117.607 188.998 130.125 192.422 142.76 195.181C150.783 197.491 157.313 193.048 160.978 186.029C166.369 177.116 167.125 166.51 168.642 156.435C170.621 142.725 171.214 128.876 171.612 115.044C171.671 106.47 173.686 96.0004 166.096 89.9007ZM153.443 121.394C153.287 135.675 152.125 149.926 149.965 164.044C149.462 168.145 148.033 174.772 145.809 178.313C135.979 176.121 126.209 173.627 116.314 171.726C109.006 170.255 101.579 169.45 94.1251 169.322C87.2835 169.651 80.4774 170.506 73.7669 171.879C77.4796 166.604 79.9241 159.769 81.2924 154.591C83.8385 143.087 84.6035 131.245 85.4253 119.514C85.5194 114.935 86.1902 110.269 85.3428 105.737C84.9721 104.344 84.1814 103.1 83.0782 102.172C81.9749 101.245 80.6128 100.68 79.177 100.554C82.269 100.347 85.3776 100.355 88.4731 100.244C96.4328 100.019 104.396 100.155 112.352 100.46C128.513 101.201 147.022 100.848 153.646 103.651C153.801 109.559 153.511 115.485 153.443 121.394V121.394Z" fill="#C31432"/>
</g>
<defs>
<clipPath id="clip0_165_2">
<rect width="205.876" height="383.44" fill="white"/>
</clipPath>
</defs>
</svg>
